Units are S.I. units (second, meters, Newtons, ...)
Angles are in degrees.
name walk
datarows 49
datacolumns 15
range 7.500000 8.274194
endheader
time exo_pelvis_tx exo_pelvis_ty exo_pelvis_tz exo_pelvis_tilt exo_pelvis_list exo_pelvis_rotation exo_hip_r exo_hip_l exo_knee_r exo_knee_l r_ankle_coupling l_ankle_coupling r_foot l_foot
7.500000	0.640045	0.932373	0.000000	0.000000	0.000000	0.000000	-5.615700	30.202490	-5.695690	-36.716230	11.310287	6.512590	0.000000	0.000000
7.516129	0.642561	0.932148	0.000000	0.000000	0.000000	0.000000	-5.879297	29.934624	-5.525235	-36.291448	11.403427	6.363215	0.000000	0.000000
7.532258	0.645077	0.931922	0.000000	0.000000	0.000000	0.000000	-6.142894	29.666758	-5.354780	-35.866666	11.496568	6.213840	0.000000	0.000000
7.548387	0.647593	0.931696	0.000000	0.000000	0.000000	0.000000	-6.406491	29.398892	-5.184326	-35.441884	11.589709	6.064465	0.000000	0.000000
7.564516	0.650110	0.931470	0.000000	0.000000	0.000000	0.000000	-6.670088	29.131025	-5.013871	-35.017102	11.682850	5.915089	0.000000	0.000000
7.580645	0.652626	0.931244	0.000000	0.000000	0.000000	0.000000	-6.933685	28.863159	-4.843416	-34.592320	11.775990	5.765714	0.000000	0.000000
7.596774	0.655142	0.931019	0.000000	0.000000	0.000000	0.000000	-7.197283	28.595293	-4.672961	-34.167538	11.869131	5.616339	0.000000	0.000000
7.612903	0.657658	0.930793	0.000000	0.000000	0.000000	0.000000	-7.460880	28.327427	-4.502506	-33.742756	11.962272	5.466964	0.000000	0.000000
7.629032	0.660174	0.930567	0.000000	0.000000	0.000000	0.000000	-7.724477	28.059561	-4.332051	-33.317975	12.055413	5.317589	0.000000	0.000000
7.645161	0.662690	0.930341	0.000000	0.000000	0.000000	0.000000	-7.988074	27.791695	-4.161597	-32.893193	12.148553	5.168214	0.000000	0.000000
7.661290	0.665206	0.930115	0.000000	0.000000	0.000000	0.000000	-8.251671	27.523829	-3.991142	-32.468411	12.241694	5.018838	0.000000	0.000000
7.677419	0.667722	0.929890	0.000000	0.000000	0.000000	0.000000	-8.515268	27.255963	-3.820687	-32.043629	12.334835	4.869463	0.000000	0.000000
7.693548	0.670239	0.929664	0.000000	0.000000	0.000000	0.000000	-8.778865	26.988096	-3.650232	-31.618847	12.427976	4.720088	0.000000	0.000000
7.709677	0.672755	0.929438	0.000000	0.000000	0.000000	0.000000	-9.042462	26.720230	-3.479777	-31.194065	12.521116	4.570713	0.000000	0.000000
7.725806	0.675271	0.929212	0.000000	0.000000	0.000000	0.000000	-9.306059	26.452364	-3.309323	-30.769283	12.614257	4.421338	0.000000	0.000000
7.741935	0.677787	0.928986	0.000000	0.000000	0.000000	0.000000	-9.569656	26.184498	-3.138868	-30.344501	12.707398	4.271963	0.000000	0.000000
7.758065	0.680303	0.928760	0.000000	0.000000	0.000000	0.000000	-9.833254	25.916632	-2.968413	-29.919719	12.800539	4.122587	0.000000	0.000000
7.774194	0.682819	0.928535	0.000000	0.000000	0.000000	0.000000	-10.096851	25.648766	-2.797958	-29.494937	12.893679	3.973212	0.000000	0.000000
7.790323	0.685335	0.928309	0.000000	0.000000	0.000000	0.000000	-10.360448	25.380900	-2.627503	-29.070155	12.986820	3.823837	0.000000	0.000000
7.806452	0.687851	0.928083	0.000000	0.000000	0.000000	0.000000	-10.624045	25.113034	-2.457048	-28.645373	13.079961	3.674462	0.000000	0.000000
7.822581	0.690368	0.927857	0.000000	0.000000	0.000000	0.000000	-10.887642	24.845167	-2.286594	-28.220591	13.173102	3.525087	0.000000	0.000000
7.838710	0.692884	0.927631	0.000000	0.000000	0.000000	0.000000	-11.151239	24.577301	-2.116139	-27.795809	13.266242	3.375712	0.000000	0.000000
7.854839	0.695400	0.927406	0.000000	0.000000	0.000000	0.000000	-11.414836	24.309435	-1.945684	-27.371027	13.359383	3.226336	0.000000	0.000000
7.870968	0.697916	0.927180	0.000000	0.000000	0.000000	0.000000	-11.678433	24.041569	-1.775229	-26.946245	13.452524	3.076961	0.000000	0.000000
7.887097	0.700432	0.926954	0.000000	0.000000	0.000000	0.000000	-11.942030	23.773703	-1.604774	-26.521464	13.545665	2.927586	0.000000	0.000000
7.903226	0.702948	0.926728	0.000000	0.000000	0.000000	0.000000	-12.205627	23.505837	-1.434320	-26.096682	13.638805	2.778211	0.000000	0.000000
7.919355	0.705464	0.926502	0.000000	0.000000	0.000000	0.000000	-12.469225	23.237971	-1.263865	-25.671900	13.731946	2.628836	0.000000	0.000000
7.935484	0.707980	0.926277	0.000000	0.000000	0.000000	0.000000	-12.732822	22.970105	-1.093410	-25.247118	13.825087	2.479461	0.000000	0.000000
7.951613	0.710497	0.926051	0.000000	0.000000	0.000000	0.000000	-12.996419	22.702238	-0.922955	-24.822336	13.918228	2.330085	0.000000	0.000000
7.967742	0.713013	0.925825	0.000000	0.000000	0.000000	0.000000	-13.260016	22.434372	-0.752500	-24.397554	14.011368	2.180710	0.000000	0.000000
7.983871	0.715529	0.925599	0.000000	0.000000	0.000000	0.000000	-13.523613	22.166506	-0.582046	-23.972772	14.104509	2.031335	0.000000	0.000000
8.000000	0.718045	0.925373	0.000000	0.000000	0.000000	0.000000	-13.787210	21.898640	-0.411591	-23.547990	14.197650	1.881960	0.000000	0.000000
8.016129	0.721271	0.925728	0.000000	0.000000	0.000000	0.000000	-12.062362	21.418915	-2.034285	-23.377535	14.063253	2.174012	0.000000	0.000000
8.032258	0.724497	0.926083	0.000000	0.000000	0.000000	0.000000	-10.337514	20.939190	-3.656979	-23.207080	13.928856	2.466063	0.000000	0.000000
8.048387	0.727722	0.926438	0.000000	0.000000	0.000000	0.000000	-8.612666	20.459465	-5.279673	-23.036625	13.794459	2.758115	0.000000	0.000000
8.064516	0.730948	0.926793	0.000000	0.000000	0.000000	0.000000	-6.887818	19.979741	-6.902367	-22.866171	13.660062	3.050166	0.000000	0.000000
8.080645	0.734174	0.927148	0.000000	0.000000	0.000000	0.000000	-5.162970	19.500016	-8.525062	-22.695716	13.525665	3.342218	0.000000	0.000000
8.096774	0.737400	0.927502	0.000000	0.000000	0.000000	0.000000	-3.438122	19.020291	-10.147756	-22.525261	13.391267	3.634270	0.000000	0.000000
8.112903	0.740626	0.927857	0.000000	0.000000	0.000000	0.000000	-1.713274	18.540566	-11.770450	-22.354806	13.256870	3.926321	0.000000	0.000000
8.129032	0.743851	0.928212	0.000000	0.000000	0.000000	0.000000	0.011575	18.060841	-13.393144	-22.184351	13.122473	4.218373	0.000000	0.000000
8.145161	0.747077	0.928567	0.000000	0.000000	0.000000	0.000000	1.736423	17.581116	-15.015838	-22.013896	12.988076	4.510424	0.000000	0.000000
8.161290	0.750303	0.928922	0.000000	0.000000	0.000000	0.000000	3.461271	17.101392	-16.638532	-21.843442	12.853679	4.802476	0.000000	0.000000
8.177419	0.753529	0.929277	0.000000	0.000000	0.000000	0.000000	5.186119	16.621667	-18.261227	-21.672987	12.719282	5.094528	0.000000	0.000000
8.193548	0.756755	0.929631	0.000000	0.000000	0.000000	0.000000	6.910967	16.141942	-19.883921	-21.502532	12.584885	5.386579	0.000000	0.000000
8.209677	0.759980	0.929986	0.000000	0.000000	0.000000	0.000000	8.635815	15.662217	-21.506615	-21.332077	12.450488	5.678631	0.000000	0.000000
8.225806	0.763206	0.930341	0.000000	0.000000	0.000000	0.000000	10.360663	15.182492	-23.129309	-21.161622	12.316091	5.970682	0.000000	0.000000
8.241935	0.766432	0.930696	0.000000	0.000000	0.000000	0.000000	12.085511	14.702767	-24.752003	-20.991167	12.181694	6.262734	0.000000	0.000000
8.258065	0.769658	0.931051	0.000000	0.000000	0.000000	0.000000	13.810359	14.223043	-26.374697	-20.820713	12.047296	6.554786	0.000000	0.000000
8.274194	0.772884	0.931406	0.000000	0.000000	0.000000	0.000000	15.535207	13.743318	-27.997392	-20.650258	11.912899	6.846837	0.000000	0.000000
